<svg width="270" height="270" viewBox="0 0 270 270" fill="none" xmlns="http://www.w3.org/2000/svg">
<g clip-path="url(#clip0_54_87)">
<ellipse cx="207.5" cy="60.5" rx="33.5" ry="32.5" fill="#EBEBEB"/>
<ellipse cx="72.5" cy="58.0001" rx="37.5" ry="31" fill="#EBEBEB"/>
<path d="M135 50.5001C170.248 50.5001 199.588 60.6068 220.074 79.1632C240.516 97.6792 252.5 124.927 252.5 159.974C252.5 195.425 244.693 215.246 228.594 227.393C212.617 239.447 187.819 244.544 151.658 248.126L148.123 248.468C115.722 251.533 82.8672 247.972 58.2686 235.104C33.9543 222.384 17.545 200.529 17.501 166.111C22.4514 106.502 65.5398 50.5002 135 50.5001Z" fill="#EBEBEB" stroke="black" stroke-width="7"/>
<path d="M89 178.751C95.1875 178.14 101.144 174 106.037 179.706C108.545 182.63 112.373 183.376 116.182 182.839C120.095 182.287 123.734 179.188 127.488 177.91C130.236 176.975 131.421 175.721 134.303 176.688C136.649 177.475 138.877 178.864 140.886 180.279C143.735 182.288 147.479 182.906 150.682 181.502C152.203 180.834 154.248 181.093 155.522 180.088C157.063 178.871 159.092 176 161.175 176C165.25 176 168.255 176.673 171.939 178.598C174.973 180.183 177.109 180.126 181 180.126" stroke="black" stroke-width="7" stroke-linecap="round"/>
<path d="M100.589 153.019L116.314 137.295" stroke="black" stroke-width="7" stroke-linecap="round"/>
<path d="M116.019 152.724L100.295 137" stroke="black" stroke-width="7" stroke-linecap="round"/>
<path d="M152.042 153.019L167.767 137.295" stroke="black" stroke-width="7" stroke-linecap="round"/>
<path d="M167.472 152.724L151.748 137" stroke="black" stroke-width="7" stroke-linecap="round"/>
<path d="M170.242 53.0561C175.954 40.8944 181.451 32.8038 197.625 29.9069C209.142 27.8443 219.661 31.9226 231.114 42.217C250.773 59.8884 236.854 78.5479 229.454 89.0824" stroke="black" stroke-width="7" stroke-linecap="round"/>
<path d="M106.121 53.3244C100.409 41.1627 94.9128 33.0721 78.7381 30.1753C67.2213 28.1126 56.7023 32.1909 45.2497 42.4853C25.5902 60.1567 39.5095 78.8162 46.9099 89.3507" stroke="black" stroke-width="7" stroke-linecap="round"/>
<path d="M66 54.2682L52 40.2682" stroke="black" stroke-width="7" stroke-linecap="round"/>
</g>
<defs>
<clipPath id="clip0_54_87">
<rect width="270" height="270" fill="white"/>
</clipPath>
</defs>
</svg>
