<svg width="270" height="270" viewBox="0 0 270 270" fill="none" xmlns="http://www.w3.org/2000/svg">
<g clip-path="url(#clip0_54_72)">
<ellipse cx="72.4531" cy="63.0001" rx="35" ry="31" fill="#FFCDB6"/>
<ellipse cx="205.453" cy="63.0001" rx="35" ry="31" fill="#FFCDB6"/>
<path d="M135 50.5001C170.248 50.5001 199.588 60.6092 220.074 79.17C240.516 97.6905 252.5 124.945 252.5 160C252.5 195.461 244.693 215.286 228.593 227.436C212.616 239.493 187.819 244.591 151.658 248.174L148.123 248.516C115.723 251.581 82.868 248.019 58.2695 235.149C33.9554 222.426 17.5452 200.566 17.501 166.14C22.4511 106.515 65.5401 50.5002 135 50.5001Z" fill="#FFCDB6" stroke="black" stroke-width="7"/>
<circle cx="168.453" cy="155" r="17" fill="black"/>
<circle cx="102.453" cy="155" r="17" fill="black"/>
<ellipse cx="108.453" cy="160.5" rx="6" ry="5.5" fill="white"/>
<ellipse cx="163.453" cy="160.5" rx="6" ry="5.5" fill="white"/>
<path d="M86.6477 134C84.2445 121.51 104.829 118.953 108.453 129.98" stroke="black" stroke-width="5" stroke-linecap="round"/>
<path d="M181.259 134C183.662 121.51 163.078 118.953 159.453 129.98" stroke="black" stroke-width="5" stroke-linecap="round"/>
<path d="M135.953 174.5C141.802 174.5 146.497 176.336 149.723 179.549C152.944 182.758 154.953 187.592 154.953 194.076C154.953 200.878 153.721 205.569 151.388 208.535C149.156 211.371 145.559 213.066 139.685 213.066H139.482L139.284 213.098C131.997 214.281 126.476 212.771 122.81 209.702C119.16 206.648 116.975 201.738 116.954 195.34C117.821 184.196 125.039 174.5 135.953 174.5Z" fill="#FFA2A2" stroke="black" stroke-width="5"/>
<path d="M170.696 53.0561C176.407 40.8944 181.904 32.8038 198.079 29.9069C209.595 27.8443 220.114 31.9226 231.567 42.217C251.226 59.8884 237.307 78.5479 229.907 89.0824" stroke="black" stroke-width="7" stroke-linecap="round"/>
<path d="M106.574 53.3244C100.862 41.1627 95.3659 33.0721 79.1912 30.1753C67.6744 28.1126 57.1555 32.1909 45.7029 42.4853C26.0433 60.1567 39.9626 78.8162 47.363 89.3507" stroke="black" stroke-width="7" stroke-linecap="round"/>
<path d="M66.4531 54.2682L52.4531 40.2682" stroke="black" stroke-width="7" stroke-linecap="round"/>
</g>
<defs>
<clipPath id="clip0_54_72">
<rect width="270" height="270" fill="white"/>
</clipPath>
</defs>
</svg>
