<svg width="270" height="270" viewBox="0 0 270 270" fill="none" xmlns="http://www.w3.org/2000/svg">
<g clip-path="url(#clip0_54_100)">
<ellipse cx="73.9531" cy="62" rx="37.5" ry="31" fill="#E3C4E5"/>
<ellipse cx="207.5" cy="60.5" rx="33.5" ry="32.5" fill="#E3C4E5"/>
<path d="M135 50.5001C170.248 50.5001 199.588 60.6092 220.074 79.17C240.516 97.6905 252.5 124.945 252.5 160C252.5 195.461 244.693 215.286 228.593 227.436C212.616 239.493 187.819 244.591 151.658 248.174L148.123 248.516C115.723 251.581 82.868 248.019 58.2695 235.149C33.9554 222.426 17.5452 200.566 17.501 166.14C22.4511 106.515 65.5401 50.5002 135 50.5001Z" fill="#E3C4E5" stroke="black" stroke-width="7"/>
<path d="M92.4531 189C102.598 171.18 118.119 165.238 130.473 160.415C146.483 154.166 163.739 169.502 176.453 189" stroke="black" stroke-width="7" stroke-linecap="round"/>
<path d="M98.935 131L120.973 137.482" stroke="black" stroke-width="7" stroke-linecap="round"/>
<path d="M170.235 131L148.197 137.482" stroke="black" stroke-width="7" stroke-linecap="round"/>
<path d="M170.696 53.0561C176.407 40.8944 181.904 32.8038 198.079 29.9069C209.595 27.8443 220.114 31.9226 231.567 42.217C251.226 59.8884 237.307 78.5479 229.907 89.0824" stroke="black" stroke-width="7" stroke-linecap="round"/>
<path d="M106.574 53.3244C100.862 41.1627 95.3659 33.0721 79.1912 30.1753C67.6744 28.1126 57.1555 32.1909 45.7029 42.4853C26.0433 60.1567 39.9626 78.8162 47.363 89.3507" stroke="black" stroke-width="7" stroke-linecap="round"/>
<path d="M66.4531 54.2682L52.4531 40.2682" stroke="black" stroke-width="7" stroke-linecap="round"/>
</g>
<defs>
<clipPath id="clip0_54_100">
<rect width="270" height="270" fill="white"/>
</clipPath>
</defs>
</svg>
