<svg width="270" height="270" viewBox="0 0 270 270" fill="none" xmlns="http://www.w3.org/2000/svg">
<g clip-path="url(#clip0_54_126)">
<ellipse cx="72.5" cy="60" rx="37.5" ry="33" fill="#C9E4F1"/>
<circle cx="207" cy="60" r="33" fill="#C9E4F1"/>
<path d="M135 50.5001C170.248 50.5001 199.588 60.6092 220.074 79.17C240.516 97.6905 252.5 124.945 252.5 160C252.5 195.461 244.693 215.286 228.593 227.436C212.616 239.493 187.819 244.591 151.658 248.174L148.123 248.516C115.723 251.581 82.868 248.019 58.2695 235.149C33.9554 222.426 17.5452 200.566 17.501 166.14C22.4511 106.515 65.5401 50.5002 135 50.5001Z" fill="#C9E4F1" stroke="black" stroke-width="7"/>
<ellipse cx="8.18081" cy="2.69718" rx="8.18081" ry="2.69718" transform="matrix(-0.509358 0.860555 -0.792167 -0.610304 81.0603 156.292)" fill="#43B6F4"/>
<ellipse cx="8.18081" cy="2.69718" rx="8.18081" ry="2.69718" transform="matrix(0.509358 0.860555 0.792167 -0.610304 190.846 156.292)" fill="#43B6F4"/>
<path d="M103.453 185C111.182 179.06 123.008 177.079 132.42 175.472C144.619 173.389 157.766 178.501 167.453 185" stroke="black" stroke-width="7" stroke-linecap="round"/>
<path d="M125.72 137C121.026 143.442 113.396 146.08 107.325 148.212C99.4576 150.973 90.5139 146.478 83.7522 140.39" stroke="black" stroke-width="7" stroke-linecap="round"/>
<path d="M147.116 137.228C151.81 143.67 159.44 146.308 165.511 148.439C173.378 151.201 182.322 146.705 189.084 140.617" stroke="black" stroke-width="7" stroke-linecap="round"/>
<path d="M170.696 53.0561C176.407 40.8944 181.904 32.8038 198.079 29.9069C209.595 27.8443 220.114 31.9226 231.567 42.217C251.226 59.8884 237.307 78.5479 229.907 89.0824" stroke="black" stroke-width="7" stroke-linecap="round"/>
<path d="M106.574 53.3244C100.862 41.1627 95.3659 33.0721 79.1912 30.1753C67.6744 28.1126 57.1555 32.1909 45.7029 42.4853C26.0433 60.1567 39.9626 78.8162 47.363 89.3507" stroke="black" stroke-width="7" stroke-linecap="round"/>
<path d="M66.4531 54.2682L52.4531 40.2682" stroke="black" stroke-width="7" stroke-linecap="round"/>
</g>
<defs>
<clipPath id="clip0_54_126">
<rect width="270" height="270" fill="white"/>
</clipPath>
</defs>
</svg>
