<svg width="270" height="270" viewBox="0 0 270 270" fill="none" xmlns="http://www.w3.org/2000/svg">
<g clip-path="url(#clip0_54_36)">
<ellipse cx="70.9531" cy="60.0001" rx="37.5" ry="31" fill="#E1F0A0"/>
<ellipse cx="205.453" cy="60.0001" rx="33" ry="31" fill="#E1F0A0"/>
<path d="M135 52.5001C170.248 52.5001 199.588 62.6092 220.074 81.17C240.516 99.6905 252.5 126.945 252.5 162C252.5 197.461 244.693 217.286 228.593 229.436C212.616 241.493 187.819 246.591 151.658 250.174L148.123 250.516C115.723 253.581 82.868 250.019 58.2695 237.149C33.9554 224.426 17.5452 202.566 17.501 168.14C22.4511 108.515 65.5401 52.5002 135 52.5001Z" fill="#E1F0A0" stroke="black" stroke-width="7"/>
<ellipse cx="204.953" cy="160" rx="20.5" ry="7" fill="#FFB2B3"/>
<ellipse cx="64.4531" cy="160" rx="20" ry="7" fill="#FFB2B3"/>
<path d="M121.453 183C124.714 184.782 129.703 185.376 133.674 185.859C138.82 186.484 144.366 184.95 148.453 183" stroke="black" stroke-width="7" stroke-linecap="round"/>
<path d="M73.4531 147.911C79.3707 146.723 88.425 146.327 95.6312 146.005C104.97 145.588 115.037 146.611 122.453 147.911" stroke="black" stroke-width="3" stroke-linecap="round"/>
<path d="M75.437 140.998C81.399 140.058 90.462 140.041 97.6753 140.02C107.024 139.994 117.039 141.435 124.394 143.044" stroke="black" stroke-width="3" stroke-linecap="round"/>
<path d="M72.4531 145.906C78.9671 143.446 88.7637 143.015 96.5614 142.657C106.667 142.194 117.384 145.145 125.214 148.6" stroke="black" stroke-width="3" stroke-linecap="round"/>
<path d="M72.4764 144.168C78.9555 141.618 88.7451 141.05 96.5371 140.584C106.636 139.98 117.392 142.781 125.269 146.126" stroke="black" stroke-width="3" stroke-linecap="round"/>
<path d="M197.453 147.911C191.536 146.723 182.481 146.327 175.275 146.005C165.936 145.588 155.87 146.611 148.453 147.911" stroke="black" stroke-width="3" stroke-linecap="round"/>
<path d="M195.469 140.998C189.507 140.058 180.444 140.041 173.231 140.02C163.882 139.994 153.868 141.435 146.512 143.044" stroke="black" stroke-width="3" stroke-linecap="round"/>
<path d="M198.453 145.906C191.939 143.446 182.143 143.015 174.345 142.657C164.239 142.194 153.523 145.145 145.693 148.6" stroke="black" stroke-width="3" stroke-linecap="round"/>
<path d="M198.43 144.168C191.951 141.618 182.161 141.05 174.369 140.584C164.271 139.98 153.514 142.781 145.637 146.126" stroke="black" stroke-width="3" stroke-linecap="round"/>
<path d="M170.696 51.0561C176.407 38.8944 181.904 30.8038 198.079 27.9069C209.595 25.8443 220.114 29.9226 231.567 40.217C251.226 57.8884 237.307 76.5479 229.907 87.0824" stroke="black" stroke-width="7" stroke-linecap="round"/>
<path d="M106.574 51.3244C100.862 39.1627 95.3659 31.0721 79.1912 28.1753C67.6744 26.1126 57.1555 30.1909 45.7029 40.4853C26.0433 58.1567 39.9626 76.8162 47.363 87.3507" stroke="black" stroke-width="7" stroke-linecap="round"/>
<path d="M66.4531 52.2682L52.4531 38.2682" stroke="black" stroke-width="7" stroke-linecap="round"/>
</g>
<defs>
<clipPath id="clip0_54_36">
<rect width="270" height="270" fill="white"/>
</clipPath>
</defs>
</svg>
