<svg width="450" height="400" viewBox="0 0 450 400" fill="none" xmlns="http://www.w3.org/2000/svg">
<ellipse cx="160.5" cy="169" rx="37.5" ry="31" fill="white"/>
<ellipse cx="292.5" cy="168" rx="37.5" ry="31" fill="white"/>
<path d="M225 162.5C260.248 162.5 289.588 172.609 310.074 191.17C330.516 209.69 342.5 236.945 342.5 272C342.5 307.46 334.693 327.286 318.593 339.436C302.616 351.493 277.819 356.591 241.658 360.174L238.123 360.516C205.723 363.581 172.868 360.019 148.27 347.148C123.955 334.426 107.545 312.566 107.501 278.14C112.451 218.515 155.54 162.5 225 162.5Z" fill="white" stroke="black" stroke-width="7"/>
<path d="M57.4531 217.421C75.4532 -16.7875 380.453 -4.78748 390.453 220.404" stroke="#ECEBFF" stroke-width="30"/>
<path d="M72.0001 215.116C88.4747 2.03767 367.848 12.972 377.02 217.847" stroke="black" stroke-width="5"/>
<path d="M44.9751 216.9C64.3713 -34.4273 393.208 -21.5363 404 220.116" stroke="black" stroke-width="5"/>
<path d="M33.8981 218.88C35.8543 218.688 38.3123 219.746 41.173 222.946C43.9903 226.098 46.8301 230.941 49.4772 237.236C54.7589 249.797 59.0506 267.599 61.0227 287.644C62.9948 307.689 62.2547 325.986 59.522 339.336C58.1524 346.026 56.3109 351.33 54.1617 354.97C51.9795 358.666 49.7748 360.183 47.8187 360.376C45.8625 360.568 43.4037 359.51 40.5429 356.31C37.7256 353.158 34.8867 348.315 32.2396 342.02C26.9578 329.459 22.6651 311.657 20.693 291.611C18.721 271.566 19.4622 253.27 22.1948 239.92C23.5644 233.23 25.405 227.926 27.5541 224.286C29.7365 220.59 31.9419 219.073 33.8981 218.88Z" fill="#D2D0FF" stroke="black" stroke-width="5"/>
<rect x="36.0655" y="218.554" width="36.941" height="142.284" transform="rotate(-6 36.0655 218.554)" fill="#ECEBFF" stroke="black" stroke-width="5"/>
<path d="M415.997 222.151C414.041 221.959 411.583 223.018 408.722 226.217C405.905 229.369 403.065 234.212 400.418 240.507C395.136 253.068 390.845 270.87 388.873 290.915C386.9 310.96 387.641 329.257 390.373 342.607C391.743 349.297 393.584 354.601 395.734 358.241C397.916 361.937 400.12 363.454 402.077 363.647C404.033 363.839 406.492 362.781 409.352 359.581C412.17 356.43 415.009 351.586 417.656 345.291C422.937 332.73 427.23 314.928 429.202 294.883C431.174 274.838 430.433 256.541 427.7 243.191C426.331 236.501 424.49 231.197 422.341 227.557C420.159 223.861 417.953 222.344 415.997 222.151Z" fill="#D2D0FF" stroke="black" stroke-width="5"/>
<rect x="-2.74763" y="2.22498" width="36.941" height="142.284" transform="matrix(-0.994522 -0.104528 -0.104528 0.994522 411.33 219.325)" fill="#ECEBFF" stroke="black" stroke-width="5"/>
<rect x="81.2515" y="213.922" width="15.4957" height="143.042" rx="7.74785" transform="rotate(-6 81.2515 213.922)" fill="#D2D0FF" stroke="black" stroke-width="5"/>
<rect x="-2.74763" y="2.22498" width="15.4957" height="143.042" rx="7.74785" transform="matrix(-0.994522 -0.104528 -0.104528 0.994522 365.064 214.08)" fill="#D2D0FF" stroke="black" stroke-width="5"/>
<rect x="-2.74763" y="2.22498" width="5.66694" height="143.184" transform="matrix(-0.994522 -0.104528 -0.104528 0.994522 365.544 214.268)" fill="#ECEBFF" stroke="black" stroke-width="5"/>
<rect x="80.7711" y="214.11" width="5.66694" height="143.184" transform="rotate(-6 80.7711 214.11)" fill="#ECEBFF" stroke="black" stroke-width="5"/>
<path d="M225.563 316.461C227.43 320.054 232.57 320.054 234.437 316.461L241.792 302.305C243.522 298.977 241.107 295 237.356 295H222.644C218.893 295 216.478 298.977 218.208 302.305L225.563 316.461Z" fill="black"/>
<ellipse cx="289.5" cy="283.5" rx="20.5" ry="6.5" fill="#FEDFDF"/>
<ellipse cx="170.5" cy="283.5" rx="20.5" ry="6.5" fill="#FEDFDF"/>
<ellipse cx="267.5" cy="263.5" rx="19.5" ry="18.5" fill="black"/>
<ellipse cx="191" cy="263.5" rx="20" ry="18.5" fill="black"/>
<ellipse cx="198" cy="270" rx="7" ry="6" fill="white"/>
<ellipse cx="262" cy="270" rx="7" ry="6" fill="white"/>
<path d="M258.242 160.788C263.954 148.626 269.451 140.536 285.625 137.639C297.142 135.576 307.661 139.654 319.114 149.949C338.773 167.62 324.854 186.28 317.454 196.814" stroke="black" stroke-width="7" stroke-linecap="round"/>
<path d="M196.121 161.056C190.409 148.894 184.913 140.804 168.738 137.907C157.221 135.844 146.702 139.923 135.25 150.217C115.59 167.888 129.51 186.548 136.91 197.082" stroke="black" stroke-width="7" stroke-linecap="round"/>
<path d="M155 160L141 146" stroke="black" stroke-width="7" stroke-linecap="round"/>
</svg>
