<svg width="270" height="270" viewBox="0 0 270 270" fill="none" xmlns="http://www.w3.org/2000/svg">
<g clip-path="url(#clip0_54_55)">
<ellipse cx="205.453" cy="63.0001" rx="35" ry="31" fill="#CBEBE0"/>
<ellipse cx="72.4531" cy="63.0001" rx="35" ry="31" fill="#CBEBE0"/>
<path d="M135 50.5001C170.248 50.5001 199.588 60.6092 220.074 79.17C240.516 97.6905 252.5 124.945 252.5 160C252.5 195.461 244.693 215.286 228.593 227.436C212.616 239.493 187.819 244.591 151.658 248.174L148.123 248.516C115.723 251.581 82.868 248.019 58.2695 235.149C33.9554 222.426 17.5452 200.566 17.501 166.14C22.4511 106.515 65.5401 50.5002 135 50.5001Z" fill="#CBEBE0" stroke="black" stroke-width="7"/>
<circle cx="167.953" cy="162.5" r="15.5" fill="black"/>
<circle cx="107.953" cy="162.5" r="15.5" fill="black"/>
<ellipse cx="113.453" cy="167" rx="6" ry="5" fill="white"/>
<ellipse cx="163.453" cy="167" rx="6" ry="5" fill="white"/>
<path d="M84.4531 142C91.2741 140.512 97.4049 139 104.518 139C108.83 139 113.141 139 117.453 139" stroke="black" stroke-width="5" stroke-linecap="round"/>
<path d="M156.453 139C164.209 138.065 170.905 136.385 178.335 134.074C180.57 133.379 182.09 133 184.453 133" stroke="black" stroke-width="5" stroke-linecap="round"/>
<path d="M209.453 99.4145C212.601 98.4367 216.657 96.2572 217.171 100.63C217.455 103.038 218.121 103.798 215.385 105.492C213.225 106.829 212.132 106.974 211.526 109.408C211.167 110.847 211.383 112.523 211.383 114" stroke="black" stroke-width="5" stroke-linecap="round"/>
<path d="M212.453 120V121" stroke="black" stroke-width="5" stroke-linecap="round"/>
<path d="M106.453 199C114.182 193.06 126.008 191.079 135.42 189.472C147.619 187.389 160.766 192.501 170.453 199" stroke="black" stroke-width="7" stroke-linecap="round"/>
<path d="M170.696 53.0561C176.407 40.8944 181.904 32.8038 198.079 29.9069C209.595 27.8443 220.114 31.9226 231.567 42.217C251.226 59.8884 237.307 78.5479 229.907 89.0824" stroke="black" stroke-width="7" stroke-linecap="round"/>
<path d="M106.574 53.3244C100.862 41.1627 95.3659 33.0721 79.1912 30.1753C67.6744 28.1126 57.1555 32.1909 45.7029 42.4853C26.0433 60.1567 39.9626 78.8162 47.363 89.3507" stroke="black" stroke-width="7" stroke-linecap="round"/>
<path d="M66.4531 54.2682L52.4531 40.2682" stroke="black" stroke-width="7" stroke-linecap="round"/>
</g>
<defs>
<clipPath id="clip0_54_55">
<rect width="270" height="270" fill="white"/>
</clipPath>
</defs>
</svg>
