<svg width="270" height="270" viewBox="0 0 270 270" fill="none" xmlns="http://www.w3.org/2000/svg">
<g clip-path="url(#clip0_54_139)">
<ellipse cx="71.9531" cy="61" rx="37.5" ry="31" fill="#FFF09A"/>
<ellipse cx="207.453" cy="60" rx="33" ry="31" fill="#FFF09A"/>
<path d="M135 50.5001C170.248 50.5001 199.588 60.6092 220.074 79.17C240.516 97.6905 252.5 124.945 252.5 160C252.5 195.461 244.693 215.286 228.593 227.436C212.616 239.493 187.819 244.591 151.658 248.174L148.123 248.516C115.723 251.581 82.868 248.019 58.2695 235.149C33.9554 222.426 17.5452 200.566 17.501 166.14C22.4511 106.515 65.5401 50.5002 135 50.5001Z" fill="#FFF09A" stroke="black" stroke-width="7"/>
<path d="M131.898 195.942C133.672 199.858 139.234 199.858 141.008 195.942L150.576 174.813C152.074 171.503 149.654 167.75 146.021 167.75H126.885C123.252 167.75 120.832 171.503 122.331 174.813L131.898 195.942Z" fill="black"/>
<ellipse cx="191.453" cy="163.5" rx="19" ry="6.5" fill="#FFB2B3"/>
<ellipse cx="80.4531" cy="163.5" rx="19" ry="6.5" fill="#FFB2B3"/>
<path d="M101.453 153L110.387 138.24C111.554 136.312 114.352 136.312 115.52 138.24L124.453 153" stroke="black" stroke-width="7" stroke-linecap="round"/>
<path d="M148.453 153L157.917 138.016C159.094 136.152 161.812 136.152 162.99 138.016L172.453 153" stroke="black" stroke-width="7" stroke-linecap="round"/>
<path d="M170.696 53.0561C176.407 40.8944 181.904 32.8038 198.079 29.9069C209.595 27.8443 220.114 31.9226 231.567 42.217C251.226 59.8884 237.307 78.5479 229.907 89.0824" stroke="black" stroke-width="7" stroke-linecap="round"/>
<path d="M106.574 53.3244C100.862 41.1627 95.3659 33.0721 79.1912 30.1753C67.6744 28.1126 57.1555 32.1909 45.7029 42.4853C26.0433 60.1567 39.9626 78.8162 47.363 89.3507" stroke="black" stroke-width="7" stroke-linecap="round"/>
<path d="M66.4531 54.2682L52.4531 40.2682" stroke="black" stroke-width="7" stroke-linecap="round"/>
</g>
<defs>
<clipPath id="clip0_54_139">
<rect width="270" height="270" fill="white"/>
</clipPath>
</defs>
</svg>
